<?xml version="1.0" encoding="UTF-8" standalone="no"?>
<svg
   xmlns:dc="http://purl.org/dc/elements/1.1/"
   xmlns:cc="http://creativecommons.org/ns#"
   xmlns:rdf="http://www.w3.org/1999/02/22-rdf-syntax-ns#"
   xmlns:svg="http://www.w3.org/2000/svg"
   xmlns="http://www.w3.org/2000/svg"
   xmlns:sodipodi="http://sodipodi.sourceforge.net/DTD/sodipodi-0.dtd"
   xmlns:inkscape="http://www.inkscape.org/namespaces/inkscape"
   width="24"
   height="24"
   version="1.1"
   id="svg14"
   sodipodi:docname="iconfinder-icon.svg"
   inkscape:version="0.92.3 (2405546, 2018-03-11)">
  <metadata
     id="metadata20">
    <rdf:RDF>
      <cc:Work
         rdf:about="">
        <dc:format>image/svg+xml</dc:format>
        <dc:type
           rdf:resource="http://purl.org/dc/dcmitype/StillImage" />
      </cc:Work>
    </rdf:RDF>
  </metadata>
  <defs
     id="defs18" />
  <sodipodi:namedview
     pagecolor="#ffffff"
     bordercolor="#666666"
     borderopacity="1"
     objecttolerance="10"
     gridtolerance="10"
     guidetolerance="10"
     inkscape:pageopacity="0"
     inkscape:pageshadow="2"
     inkscape:window-width="1853"
     inkscape:window-height="1025"
     id="namedview16"
     showgrid="false"
     inkscape:zoom="9.8333333"
     inkscape:cx="30.711864"
     inkscape:cy="12"
     inkscape:window-x="67"
     inkscape:window-y="27"
     inkscape:window-maximized="1"
     inkscape:current-layer="g12" />
  <g
     id="g5">
    <title
       id="title2">background</title>
    <rect
       fill="none"
       id="canvas_background"
       height="402"
       width="582"
       y="-1"
       x="-1" />
  </g>
  <g
     id="g12">
    <title
       id="title7">Layer 1</title>
    <path
       id="svg_3"
       d="m19.735357,23.5l-15.4,0c-2.1,0 -3.8,-1.7 -3.8,-3.8l0,-15.4c0,-2.1 1.7,-3.8 3.8,-3.8l15.3,0c2.1,0 3.8,1.7 3.8,3.8l0,15.3c0.1,2.2 -1.6,3.9 -3.7,3.9zm-15.4,-22c-1.6,0 -2.8,1.3 -2.8,2.8l0,15.3c0,1.6 1.3,2.8 2.8,2.8l15.3,0c1.6,0 2.8,-1.3 2.8,-2.8l0,-15.3c0,-1.6 -1.3,-2.8 -2.8,-2.8l-15.3,0z" />
    <path
       d="m9.949286,9.328326c0.035357,0.070714 0.106071,0.2475 0.141429,0.636429c0.035357,0.388928 0.021871,0.814451 0.070714,1.272857c0.083178,0.780638 0.144966,1.315118 0.282857,1.873929c0.115211,0.466905 0.353572,0.919286 0.495,1.202143c0.176786,0.353572 0.254077,0.413416 0.318214,0.459643c0.040565,0.029237 0.106071,0.035357 0.212143,0.035357c0.176786,0 0.467929,-0.00731 0.990001,-0.176785c0.468406,-0.152054 0.822848,-0.260245 1.202143,-0.601071c0.205404,-0.184572 0.212143,-0.353571 0.247499,-0.424286l0,-0.035357"
       id="svg_9"
       fill-opacity="null"
       stroke-opacity="null"
       stroke-width="null"
       stroke="null"
       fill="none" />
    <text
       font-weight="bold"
       stroke="null"
       transform="scale(1.0224984,0.97799665)"
       xml:space="preserve"
       font-size="28"
       id="svg_10"
       y="17.939947"
       x="6.1661925"
       fill-opacity="null"
       stroke-opacity="null"
       style="font-style:normal;font-variant:normal;font-weight:normal;font-stretch:normal;font-size:24px;font-family:'Euphoria Script';-inkscape-font-specification:'Euphoria Script, Normal';font-variant-ligatures:normal;font-variant-caps:normal;font-variant-numeric:normal;font-feature-settings:normal;text-align:start;writing-mode:lr-tb;text-anchor:start;fill:#000000;stroke-width:0">S</text>
  </g>
</svg>
